<svg width="35" height="35" fill="none" xmlns="http://www.w3.org/2000/svg"><g clip-path="url(#a)"><path d="M34.888 17.437c0 9.63-7.807 17.437-17.437 17.437S.014 27.067.014 17.437 7.821 0 17.451 0s17.437 7.807 17.437 17.437Z" fill="#22253B"/><path d="M21.401 8.686h-8.189A4.839 4.839 0 0 0 8.38 13.52v8.188a4.839 4.839 0 0 0 4.833 4.834h8.19a4.839 4.839 0 0 0 4.832-4.834V13.52a4.839 4.839 0 0 0-4.833-4.834Zm-4.094 13.81a4.888 4.888 0 0 1-4.882-4.882 4.888 4.888 0 0 1 4.882-4.882 4.888 4.888 0 0 1 4.882 4.882 4.888 4.888 0 0 1-4.882 4.882Zm4.999-8.613a1.444 1.444 0 0 1-1.443-1.442c0-.796.647-1.443 1.443-1.443.795 0 1.442.647 1.442 1.443 0 .795-.647 1.442-1.442 1.442Z" fill="#fff"/><path d="M17.307 13.779a3.84 3.84 0 0 0-3.835 3.835 3.84 3.84 0 0 0 3.835 3.836 3.84 3.84 0 0 0 3.835-3.836 3.84 3.84 0 0 0-3.835-3.835ZM22.306 12.045a.396.396 0 1 0 0 .792.396.396 0 0 0 0-.792Z" fill="#fff"/></g><defs><clipPath id="a"><path fill="#fff" d="M0 0h35v35H0z"/></clipPath></defs></svg>