<svg width="64" height="20" fill="none" xmlns="http://www.w3.org/2000/svg"><path fill-rule="evenodd" clip-rule="evenodd" d="M23.384 7.823v9.172c.112.822 1.054 2.464 3.919 2.464h4.122v-1.848h-4.122c-.586 0-1.757-.268-1.757-1.343V7.823h4.865V5.807h-4.865V2.438h-2.162v3.37H20.41v2.015h2.974ZM55.925 7.823v9.172c.113.822 1.054 2.464 3.92 2.464h4.121v-1.848h-4.122c-.585 0-1.757-.268-1.757-1.343V7.823h4.865V5.807h-4.865V2.438h-2.162v3.37h-2.974v2.015h2.974Z" fill="#000"/><path fill-rule="evenodd" clip-rule="evenodd" d="M0 0h2.755l6.367 9.211L15.612 0h2.821l-8.076 11.494H7.6L0 0Zm10.359 11.494H7.608v7.965h2.75v-7.965Z" fill="#38BFF2"/><path fill-rule="evenodd" clip-rule="evenodd" d="M32.542 0h2.755l6.366 9.211L48.155 0h2.82l-8.076 11.494h-2.756L32.542 0ZM42.9 11.494h-2.751v7.965h2.75v-7.965Z" fill="#F15525"/></svg>